<?xml version="1.0" encoding="UTF-8" standalone="no"?>
<!-- Created with Inkscape (http://www.inkscape.org/) -->

<svg
   width="297mm"
   height="420mm"
   viewBox="0 0 297 420"
   version="1.1"
   id="svg1"
   inkscape:export-filename="bitmap.png"
   inkscape:export-xdpi="96"
   inkscape:export-ydpi="96"
   inkscape:version="1.3.2 (091e20e, 2023-11-25, custom)"
   sodipodi:docname="backsiestextcolorlines.svg"
   xmlns:inkscape="http://www.inkscape.org/namespaces/inkscape"
   xmlns:sodipodi="http://sodipodi.sourceforge.net/DTD/sodipodi-0.dtd"
   xmlns="http://www.w3.org/2000/svg"
   xmlns:svg="http://www.w3.org/2000/svg">
  <sodipodi:namedview
     id="namedview1"
     pagecolor="#ffffff"
     bordercolor="#cccccc"
     borderopacity="1"
     inkscape:showpageshadow="0"
     inkscape:pageopacity="1"
     inkscape:pagecheckerboard="0"
     inkscape:deskcolor="#d1d1d1"
     inkscape:document-units="mm"
     inkscape:export-bgcolor="#ffffff00"
     inkscape:zoom="0.81576416"
     inkscape:cx="840.92932"
     inkscape:cy="973.93345"
     inkscape:window-width="1920"
     inkscape:window-height="1017"
     inkscape:window-x="-8"
     inkscape:window-y="-8"
     inkscape:window-maximized="1"
     inkscape:current-layer="layer1" />
  <defs
     id="defs1">
    <rect
       x="98.067559"
       y="1463.6583"
       width="90.712492"
       height="56.388846"
       id="rect8" />
    <linearGradient
       id="swatch6"
       inkscape:swatch="solid">
      <stop
         style="stop-color:#000000;stop-opacity:1;"
         offset="0"
         id="stop6" />
    </linearGradient>
    <linearGradient
       id="swatch5"
       inkscape:swatch="solid">
      <stop
         style="stop-color:#8b8b8b;stop-opacity:1;"
         offset="0"
         id="stop5" />
    </linearGradient>
  </defs>
  <g
     inkscape:label="Layer 1"
     inkscape:groupmode="layer"
     id="layer1">
    <rect
       style="fill:#f9f9f9;stroke-width:0.264583"
       id="rect1"
       width="140.72229"
       height="112.14373"
       x="31.472593"
       y="24.961023"
       rx="5"
       ry="5" />
    <rect
       style="fill:#000000;stroke-width:0.0670305;stroke-dasharray:none"
       id="rect3"
       width="35"
       height="27"
       x="18.525602"
       y="380.85062"
       rx="0.86307609"
       ry="1.8474348" />
    <rect
       style="fill:#f9f9f9;fill-opacity:1;stroke-width:0.0577219;stroke-dasharray:none"
       id="rect3-0"
       width="31.111111"
       height="22.524508"
       x="20.450651"
       y="383.23981"
       rx="0.76717877"
       ry="1.541206" />
    <rect
       style="fill:#000000;stroke-width:0.0670305;stroke-dasharray:none"
       id="rect3-7"
       width="35"
       height="27"
       x="18.686836"
       y="354.43774"
       rx="0.86307609"
       ry="1.8474348" />
    <rect
       style="fill:#ffff00;fill-opacity:1;stroke-width:0.0577219;stroke-dasharray:none"
       id="rect3-0-9"
       width="31.111111"
       height="22.524508"
       x="20.611885"
       y="356.82693"
       rx="0.76717877"
       ry="1.541206" />
    <rect
       style="fill:#000000;stroke-width:0.0670305;stroke-dasharray:none"
       id="rect3-6"
       width="35"
       height="27"
       x="18.686836"
       y="327.45023"
       rx="0.86307609"
       ry="1.8474348" />
    <rect
       style="fill:#f9f9f9;fill-opacity:1;stroke-width:0.0577219;stroke-dasharray:none"
       id="rect3-0-8"
       width="31.111111"
       height="22.524508"
       x="20.611885"
       y="329.83942"
       rx="0.76717877"
       ry="1.541206" />
    <rect
       style="fill:#000000;stroke-width:0.0670305;stroke-dasharray:none"
       id="rect3-3"
       width="35"
       height="27"
       x="53.677986"
       y="327.51639"
       rx="0.86307609"
       ry="1.8474348" />
    <rect
       style="fill:#00ffff;fill-opacity:1;stroke-width:0.0577219;stroke-dasharray:none"
       id="rect3-0-7"
       width="31.111111"
       height="22.524508"
       x="55.603035"
       y="329.90558"
       rx="0.76717877"
       ry="1.541206" />
    <rect
       style="fill:#000000;stroke-width:0.0670305;stroke-dasharray:none"
       id="rect3-3-1"
       width="35"
       height="27"
       x="88.669128"
       y="327.45026"
       rx="0.86307609"
       ry="1.8474348" />
    <rect
       style="fill:#f9f9f9;fill-opacity:1;stroke-width:0.0577219;stroke-dasharray:none"
       id="rect3-0-7-0"
       width="31.111111"
       height="22.524508"
       x="90.594177"
       y="329.83945"
       rx="0.76717877"
       ry="1.541206" />
    <rect
       style="fill:#000000;stroke-width:0.0670305;stroke-dasharray:none"
       id="rect3-3-3"
       width="35"
       height="27"
       x="123.59413"
       y="327.31796"
       rx="0.86307609"
       ry="1.8474348" />
    <rect
       style="fill:#ff0000;fill-opacity:1;stroke-width:0.0577219;stroke-dasharray:none"
       id="rect3-0-7-2"
       width="31.111111"
       height="22.524508"
       x="125.51918"
       y="329.70715"
       rx="0.76717877"
       ry="1.541206" />
    <rect
       style="fill:#000000;stroke-width:0.0670305;stroke-dasharray:none"
       id="rect3-3-17"
       width="35"
       height="27"
       x="123.46183"
       y="300.59503"
       rx="0.86307609"
       ry="1.8474348" />
    <rect
       style="fill:#ffff00;fill-opacity:1;stroke-width:0.0577219;stroke-dasharray:none"
       id="rect3-0-7-01"
       width="31.111111"
       height="22.524508"
       x="125.38689"
       y="302.98422"
       rx="0.76717877"
       ry="1.541206" />
    <rect
       style="fill:#000000;stroke-width:0.0670305;stroke-dasharray:none"
       id="rect3-3-2"
       width="35"
       height="27"
       x="123.32955"
       y="273.73984"
       rx="0.86307609"
       ry="1.8474348" />
    <rect
       style="fill:#00ffff;fill-opacity:1;stroke-width:0.0577219;stroke-dasharray:none"
       id="rect3-0-7-7"
       width="31.111111"
       height="22.524508"
       x="125.25459"
       y="276.12903"
       rx="0.76717877"
       ry="1.541206" />
    <rect
       style="fill:#000000;stroke-width:0.0670305;stroke-dasharray:none"
       id="rect3-3-3-3"
       width="35"
       height="27"
       x="53.380196"
       y="113.59237"
       rx="0.86307609"
       ry="1.8474348" />
    <rect
       style="fill:#f9f9f9;fill-opacity:1;stroke-width:0.0577219;stroke-dasharray:none"
       id="rect3-0-7-2-4"
       width="31.111111"
       height="22.524508"
       x="55.305252"
       y="115.98155"
       rx="0.76717877"
       ry="1.541206" />
    <rect
       style="fill:#000000;stroke-width:0.0670305;stroke-dasharray:none"
       id="rect3-3-17-0"
       width="35"
       height="27"
       x="53.247902"
       y="86.869431"
       rx="0.86307609"
       ry="1.8474348" />
    <rect
       style="fill:#f9f9f9;fill-opacity:1;stroke-width:0.0577219;stroke-dasharray:none"
       id="rect3-0-7-01-0"
       width="31.111111"
       height="22.524508"
       x="55.172958"
       y="89.258621"
       rx="0.76717877"
       ry="1.541206" />
    <rect
       style="fill:#000000;stroke-width:0.0670305;stroke-dasharray:none"
       id="rect3-3-2-0"
       width="35"
       height="27"
       x="53.115616"
       y="60.014233"
       rx="0.86307609"
       ry="1.8474348" />
    <rect
       style="fill:#f9f9f9;fill-opacity:1;stroke-width:0.0577219;stroke-dasharray:none"
       id="rect3-0-7-7-3"
       width="31.111111"
       height="22.524508"
       x="55.040672"
       y="62.403423"
       rx="0.76717877"
       ry="1.541206" />
    <rect
       style="fill:#000000;stroke-width:0.0670305;stroke-dasharray:none"
       id="rect3-3-2-1"
       width="35"
       height="27"
       x="123.36263"
       y="247.41377"
       rx="0.86307609"
       ry="1.8474348" />
    <rect
       style="fill:#f9f9f9;fill-opacity:1;stroke-width:0.0577219;stroke-dasharray:none"
       id="rect3-0-7-7-4"
       width="31.111111"
       height="22.524508"
       x="125.28767"
       y="249.80296"
       rx="0.76717877"
       ry="1.541206" />
    <rect
       style="fill:#000000;stroke-width:0.0670305;stroke-dasharray:none"
       id="rect3-3-17-5"
       width="35"
       height="27"
       x="228.03052"
       y="220.48221"
       rx="0.86307609"
       ry="1.8474348" />
    <rect
       style="fill:#f9f9f9;fill-opacity:1;stroke-width:0.0577219;stroke-dasharray:none"
       id="rect3-0-7-01-6"
       width="31.111111"
       height="22.524508"
       x="229.95558"
       y="222.8714"
       rx="0.76717877"
       ry="1.541206" />
    <rect
       style="fill:#000000;stroke-width:0.0670305;stroke-dasharray:none"
       id="rect3-3-2-2"
       width="35"
       height="27"
       x="227.89824"
       y="193.62701"
       rx="0.86307609"
       ry="1.8474348" />
    <rect
       style="fill:#ffff00;fill-opacity:1;stroke-width:0.0577219;stroke-dasharray:none"
       id="rect3-0-7-7-1"
       width="31.111111"
       height="22.524508"
       x="229.82329"
       y="196.0162"
       rx="0.76717877"
       ry="1.541206" />
    <rect
       style="fill:#000000;stroke-width:0.0670305;stroke-dasharray:none"
       id="rect3-3-2-1-6"
       width="35"
       height="27"
       x="227.93132"
       y="167.30093"
       rx="0.86307609"
       ry="1.8474348" />
    <rect
       style="fill:#f9f9f9;fill-opacity:1;stroke-width:0.0577219;stroke-dasharray:none"
       id="rect3-0-7-7-4-0"
       width="31.111111"
       height="22.524508"
       x="229.85635"
       y="169.69012"
       rx="0.76717877"
       ry="1.541206" />
    <rect
       style="fill:#000000;stroke-width:0.0670305;stroke-dasharray:none"
       id="rect3-3-2-1-1"
       width="35"
       height="27"
       x="158.16098"
       y="247.36369"
       rx="0.86307609"
       ry="1.8474348" />
    <rect
       style="fill:#ff0000;fill-opacity:1;stroke-width:0.0577219;stroke-dasharray:none"
       id="rect3-0-7-7-4-6"
       width="31.111111"
       height="22.524508"
       x="160.08603"
       y="249.75288"
       rx="0.76717877"
       ry="1.541206" />
    <rect
       style="fill:#000000;stroke-width:0.0670305;stroke-dasharray:none"
       id="rect3-3-2-1-1-9"
       width="35"
       height="27"
       x="193.04042"
       y="247.35315"
       rx="0.86307609"
       ry="1.8474348" />
    <rect
       style="fill:#f9f9f9;fill-opacity:1;stroke-width:0.0577219;stroke-dasharray:none"
       id="rect3-0-7-7-4-6-6"
       width="31.111111"
       height="22.524508"
       x="194.96547"
       y="249.74234"
       rx="0.76717877"
       ry="1.541206" />
    <rect
       style="fill:#000000;stroke-width:0.0670305;stroke-dasharray:none"
       id="rect3-3-2-1-1-3"
       width="35"
       height="27"
       x="227.99931"
       y="247.3313"
       rx="0.86307609"
       ry="1.8474348" />
    <rect
       style="fill:#00ffff;fill-opacity:1;stroke-width:0.0577219;stroke-dasharray:none"
       id="rect3-0-7-7-4-6-4"
       width="31.111111"
       height="22.524508"
       x="229.92436"
       y="249.72049"
       rx="0.76717877"
       ry="1.541206" />
    <rect
       style="fill:#000000;stroke-width:0.0670305;stroke-dasharray:none"
       id="rect3-3-2-1-8"
       width="35"
       height="27"
       x="123.20267"
       y="140.47614"
       rx="0.86307609"
       ry="1.8474348" />
    <rect
       style="fill:#ff0000;fill-opacity:1;stroke-width:0.0577219;stroke-dasharray:none"
       id="rect3-0-7-7-4-1"
       width="31.111111"
       height="22.524508"
       x="125.12772"
       y="142.86533"
       rx="0.76717877"
       ry="1.541206" />
    <rect
       style="fill:#000000;stroke-width:0.0670305;stroke-dasharray:none"
       id="rect3-3-2-1-1-5"
       width="35"
       height="27"
       x="158.00104"
       y="140.42606"
       rx="0.86307609"
       ry="1.8474348" />
    <rect
       style="fill:#f9f9f9;fill-opacity:1;stroke-width:0.0577219;stroke-dasharray:none"
       id="rect3-0-7-7-4-6-9"
       width="31.111111"
       height="22.524508"
       x="159.92609"
       y="142.81525"
       rx="0.76717877"
       ry="1.541206" />
    <rect
       style="fill:#000000;stroke-width:0.0670305;stroke-dasharray:none"
       id="rect3-3-2-1-8-6"
       width="35"
       height="27"
       x="53.479446"
       y="140.53241"
       rx="0.86307609"
       ry="1.8474348" />
    <rect
       style="fill:#f9f9f9;fill-opacity:1;stroke-width:0.0577219;stroke-dasharray:none"
       id="rect3-0-7-7-4-1-1"
       width="31.111111"
       height="22.524508"
       x="55.404495"
       y="142.9216"
       rx="0.76717877"
       ry="1.541206" />
    <rect
       style="fill:#000000;stroke-width:0.0670305;stroke-dasharray:none"
       id="rect3-3-2-1-1-5-9"
       width="35"
       height="27"
       x="88.277817"
       y="140.48233"
       rx="0.86307609"
       ry="1.8474348" />
    <rect
       style="fill:#ffff00;fill-opacity:1;stroke-width:0.0577219;stroke-dasharray:none"
       id="rect3-0-7-7-4-6-9-2"
       width="31.111111"
       height="22.524508"
       x="90.202866"
       y="142.87152"
       rx="0.76717877"
       ry="1.541206" />
    <rect
       style="fill:#000000;stroke-width:0.0670305;stroke-dasharray:none"
       id="rect3-3-2-1-1-9-6"
       width="35"
       height="27"
       x="192.88048"
       y="140.41551"
       rx="0.86307609"
       ry="1.8474348" />
    <rect
       style="fill:#ff0000;fill-opacity:1;stroke-width:0.0577219;stroke-dasharray:none"
       id="rect3-0-7-7-4-6-6-5"
       width="31.111111"
       height="22.524508"
       x="194.80553"
       y="142.8047"
       rx="0.76717877"
       ry="1.541206" />
    <rect
       style="fill:#000000;stroke-width:0.0670305;stroke-dasharray:none"
       id="rect3-3-2-1-1-3-6"
       width="35"
       height="27"
       x="227.83936"
       y="140.39366"
       rx="0.86307609"
       ry="1.8474348" />
    <rect
       style="fill:#00ffff;fill-opacity:1;stroke-width:0.0577219;stroke-dasharray:none"
       id="rect3-0-7-7-4-6-4-5"
       width="31.111111"
       height="22.524508"
       x="229.7644"
       y="142.78285"
       rx="0.76717877"
       ry="1.541206" />
    <rect
       style="fill:#000000;fill-opacity:1;stroke-width:0.236977;stroke-dasharray:none"
       id="rect7"
       width="20"
       height="5"
       x="17.866625"
       y="181.64403"
       rx="4.4187059"
       ry="0.84364444" />
    <rect
       style="fill:#000000;fill-opacity:1;stroke-width:0.236976;stroke-dasharray:none"
       id="rect7-0"
       width="5"
       height="20"
       x="17.172325"
       y="182.17024"
       rx="1.1046765"
       ry="3.3745778" />
    <rect
       style="fill:#000000;fill-opacity:1;stroke-width:0.236977;stroke-dasharray:none"
       id="rect7-4"
       width="20"
       height="5"
       x="62.348083"
       y="181.73003"
       rx="4.4187059"
       ry="0.84364444" />
    <rect
       style="fill:#000000;fill-opacity:1;stroke-width:0.236976;stroke-dasharray:none"
       id="rect7-0-5"
       width="5"
       height="20"
       x="78.133888"
       y="182.33069"
       rx="1.1046765"
       ry="3.3745778" />
    <rect
       style="fill:#000000;fill-opacity:1;stroke-width:0.236977;stroke-dasharray:none"
       id="rect7-43"
       width="20"
       height="5"
       x="17.758753"
       y="271.73642"
       rx="4.4187059"
       ry="0.84364444" />
    <rect
       style="fill:#000000;fill-opacity:1;stroke-width:0.236976;stroke-dasharray:none"
       id="rect7-0-4"
       width="5"
       height="20"
       x="17.160433"
       y="256.7142"
       rx="1.1046765"
       ry="3.3745778" />
    <rect
       style="fill:#000000;fill-opacity:1;stroke-width:0.236977;stroke-dasharray:none"
       id="rect7-4-8"
       width="20"
       height="5"
       x="62.655045"
       y="271.85065"
       rx="4.4187059"
       ry="0.84364444" />
    <rect
       style="fill:#000000;fill-opacity:1;stroke-width:0.236976;stroke-dasharray:none"
       id="rect7-0-5-9"
       width="5"
       height="20"
       x="78.098534"
       y="256.83167"
       rx="1.1046765"
       ry="3.3745778" />
    <text
       xml:space="preserve"
       transform="scale(0.26458333)"
       id="text8"
       style="white-space:pre;shape-inside:url(#rect8);display:inline;fill:#000000;fill-opacity:1;stroke-width:0.986457;stroke-dasharray:none" />
    <text
       xml:space="preserve"
       style="font-style:normal;font-variant:normal;font-weight:normal;font-stretch:normal;font-size:6.35px;font-family:Coolsville;-inkscape-font-specification:Coolsville;fill:#000000;fill-opacity:1;stroke-width:0.261;stroke-dasharray:none"
       x="26.198204"
       y="396.74466"
       id="text9"><tspan
         sodipodi:role="line"
         id="tspan9"
         style="stroke-width:0.261"
         x="26.198204"
         y="396.74466">Start</tspan></text>
    <text
       xml:space="preserve"
       style="font-style:normal;font-variant:normal;font-weight:normal;font-stretch:normal;font-size:6.35px;font-family:Coolsville;-inkscape-font-specification:Coolsville;fill:#000000;fill-opacity:1;stroke-width:0.261;stroke-dasharray:none"
       x="59.185482"
       y="75.276413"
       id="text9-6"><tspan
         sodipodi:role="line"
         id="tspan9-0"
         style="stroke-width:0.261"
         x="59.185482"
         y="75.276413">Finish</tspan></text>
    <text
       xml:space="preserve"
       style="font-style:normal;font-variant:normal;font-weight:normal;font-stretch:normal;font-size:6.35px;font-family:Coolsville;-inkscape-font-specification:Coolsville;fill:#000000;fill-opacity:1;stroke-width:0.261;stroke-dasharray:none"
       x="27.771517"
       y="370.14276"
       id="text9-7"><tspan
         sodipodi:role="line"
         id="tspan9-7"
         style="stroke-width:0.261"
         x="27.771517"
         y="370.14276">card</tspan></text>
    <text
       xml:space="preserve"
       style="font-style:normal;font-variant:normal;font-weight:normal;font-stretch:normal;font-size:6.35px;font-family:Coolsville;-inkscape-font-specification:Coolsville;fill:#000000;fill-opacity:1;stroke-width:0.261;stroke-dasharray:none"
       x="97.668922"
       y="156.47842"
       id="text9-7-3"><tspan
         sodipodi:role="line"
         id="tspan9-7-5"
         style="stroke-width:0.261"
         x="97.668922"
         y="156.47842">card</tspan></text>
    <text
       xml:space="preserve"
       style="font-style:normal;font-variant:normal;font-weight:normal;font-stretch:normal;font-size:6.35px;font-family:Coolsville;-inkscape-font-specification:Coolsville;fill:#000000;fill-opacity:1;stroke-width:0.261;stroke-dasharray:none"
       x="133.37073"
       y="316.02011"
       id="text9-7-3-1"><tspan
         sodipodi:role="line"
         id="tspan9-7-5-1"
         style="stroke-width:0.261"
         x="133.37073"
         y="316.02011">card</tspan></text>
    <text
       xml:space="preserve"
       style="font-style:normal;font-variant:normal;font-weight:normal;font-stretch:normal;font-size:6.35px;font-family:Coolsville;-inkscape-font-specification:Coolsville;fill:#000000;fill-opacity:1;stroke-width:0.261;stroke-dasharray:none"
       x="62.364513"
       y="343.4631"
       id="text9-7-3-1-6"><tspan
         sodipodi:role="line"
         style="stroke-width:0.261"
         x="62.364513"
         y="343.4631"
         id="tspan10">jump</tspan></text>
    <text
       xml:space="preserve"
       style="font-style:normal;font-variant:normal;font-weight:normal;font-stretch:normal;font-size:6.35px;font-family:Coolsville;-inkscape-font-specification:Coolsville;fill:#000000;fill-opacity:1;stroke-width:0.261;stroke-dasharray:none"
       x="132.25966"
       y="289.42477"
       id="text9-7-3-1-6-7"><tspan
         sodipodi:role="line"
         style="stroke-width:0.261"
         x="132.25966"
         y="289.42477"
         id="tspan10-7">jump</tspan></text>
    <text
       xml:space="preserve"
       style="font-style:normal;font-variant:normal;font-weight:normal;font-stretch:normal;font-size:6.35px;font-family:Coolsville;-inkscape-font-specification:Coolsville;fill:#000000;fill-opacity:1;stroke-width:0.261;stroke-dasharray:none"
       x="132.78842"
       y="343.99866"
       id="text9-7-3-1-6-7-9"><tspan
         sodipodi:role="line"
         style="stroke-width:0.261"
         x="132.78842"
         y="343.99866"
         id="tspan10-7-2">back</tspan></text>
    <text
       xml:space="preserve"
       style="font-style:normal;font-variant:normal;font-weight:normal;font-stretch:normal;font-size:6.35px;font-family:Coolsville;-inkscape-font-specification:Coolsville;fill:#000000;fill-opacity:1;stroke-width:0.261;stroke-dasharray:none"
       x="167.66748"
       y="263.24863"
       id="text9-7-3-1-6-7-9-2"><tspan
         sodipodi:role="line"
         style="stroke-width:0.261"
         x="167.66748"
         y="263.24863"
         id="tspan10-7-2-6">back</tspan></text>
    <text
       xml:space="preserve"
       style="font-style:normal;font-variant:normal;font-weight:normal;font-stretch:normal;font-size:6.35px;font-family:Coolsville;-inkscape-font-specification:Coolsville;fill:#000000;fill-opacity:1;stroke-width:0.261;stroke-dasharray:none"
       x="132.29643"
       y="156.60399"
       id="text9-7-3-1-6-7-9-2-9"><tspan
         sodipodi:role="line"
         style="stroke-width:0.261"
         x="132.29643"
         y="156.60399"
         id="tspan10-7-2-6-7">back</tspan></text>
    <text
       xml:space="preserve"
       style="font-style:normal;font-variant:normal;font-weight:normal;font-stretch:normal;font-size:6.35px;font-family:Coolsville;-inkscape-font-specification:Coolsville;fill:#000000;fill-opacity:1;stroke-width:0.261;stroke-dasharray:none"
       x="201.28954"
       y="156.91808"
       id="text9-7-3-1-6-7-9-2-6"><tspan
         sodipodi:role="line"
         style="stroke-width:0.261"
         x="201.28954"
         y="156.91808"
         id="tspan10-7-2-6-77">back</tspan></text>
    <text
       xml:space="preserve"
       style="font-style:normal;font-variant:normal;font-weight:normal;font-stretch:normal;font-size:6.35px;font-family:Coolsville;-inkscape-font-specification:Coolsville;fill:#000000;fill-opacity:1;stroke-width:0.261;stroke-dasharray:none"
       x="236.77467"
       y="263.3074"
       id="text9-7-3-1-6-1"><tspan
         sodipodi:role="line"
         style="stroke-width:0.261"
         x="236.77467"
         y="263.3074"
         id="tspan10-1">jump</tspan></text>
    <text
       xml:space="preserve"
       style="font-style:normal;font-variant:normal;font-weight:normal;font-stretch:normal;font-size:6.35px;font-family:Coolsville;-inkscape-font-specification:Coolsville;fill:#000000;fill-opacity:1;stroke-width:0.261;stroke-dasharray:none"
       x="236.69151"
       y="156.25122"
       id="text9-7-3-1-6-1-9"><tspan
         sodipodi:role="line"
         style="stroke-width:0.261"
         x="236.69151"
         y="156.25122"
         id="tspan10-1-9">jump</tspan></text>
    <text
       xml:space="preserve"
       style="font-style:normal;font-variant:normal;font-weight:normal;font-stretch:normal;font-size:6.35px;font-family:Coolsville;-inkscape-font-specification:Coolsville;fill:#000000;fill-opacity:1;stroke-width:0.261;stroke-dasharray:none"
       x="237.79646"
       y="208.83487"
       id="text9-7-3-1-2"><tspan
         sodipodi:role="line"
         id="tspan9-7-5-1-7"
         style="stroke-width:0.261"
         x="237.79646"
         y="208.83487">card</tspan></text>
    <path
       style="fill:#00ffff;fill-opacity:1;stroke-width:0.261;stroke-dasharray:none"
       id="path11"
       d="m 78.820358,324.28899 c 0.230487,-3.24855 1.906956,-6.11412 3.3723,-8.94029 2.479305,-4.72877 6.624595,-8.12507 10.650876,-11.48451 3.303336,-2.66255 6.889075,-4.93662 10.472546,-7.19627 3.32942,-2.19921 6.9113,-3.91983 10.68929,-5.18456 1.79084,-0.48067 0.90642,-0.27776 2.65143,-0.61661 1.5606,-2.24195 -1.61002,-4.44897 -3.17062,-2.207 v 0 c -1.75023,0.37785 -0.86546,0.1547 -2.65241,0.67686 -3.76253,1.34265 -7.35725,3.08488 -10.70072,5.2818 -3.591366,2.26369 -7.177341,4.55411 -10.450138,7.27117 -4.03556,3.41678 -8.228608,6.84101 -10.757863,11.59007 -1.521431,2.86414 -3.200678,5.74093 -3.627845,9.0142 -1.269355,2.49126 2.2538,4.28638 3.523154,1.79514 z" />
    <path
       style="fill:#00ffff;fill-opacity:1;stroke-width:0.261;stroke-dasharray:none"
       id="path13"
       d="m 268.8641,262.73901 c 1.19129,-0.28222 2.34297,-0.71484 3.46353,-1.2021 0.84251,-0.38826 1.69566,-0.76213 2.50502,-1.21793 0.64641,-0.36403 1.25066,-0.79088 1.85058,-1.22507 0.96083,-0.64779 1.87063,-1.36394 2.78125,-2.07912 1.05293,-0.74098 1.97937,-1.63017 2.84879,-2.57474 0.62354,-0.74061 1.19123,-1.52736 1.76604,-2.30617 0.84998,-1.03556 1.45111,-2.23063 1.95456,-3.46368 0.5193,-1.35081 1.07106,-2.68901 1.56096,-4.05094 0.44622,-1.36829 0.55676,-2.80181 0.62807,-4.22923 0.0542,-1.31514 0.0402,-2.63174 0.028,-3.94754 -0.004,-1.78929 -0.0487,-3.57763 -0.0563,-5.36688 0.0318,-1.88917 0.0169,-3.77551 -0.0846,-5.66205 -0.0639,-1.596 -0.19436,-3.18587 -0.33694,-4.77631 -0.18392,-2.08476 -0.40884,-4.164 -0.54896,-6.25257 -0.10859,-1.89005 -0.12819,-3.78318 -0.1346,-5.67579 0,-1.80548 -0.0225,-3.6107 -0.0183,-5.41618 0.005,-1.78097 0.0138,-3.56185 0.0164,-5.34283 0.0464,-1.56994 -0.0998,-3.13466 -0.34142,-4.68397 -0.29114,-1.49387 -0.62208,-2.97824 -0.83883,-4.48537 -0.17063,-1.29882 -0.22056,-2.60989 -0.23953,-3.91853 -0.0228,-1.12058 0.0204,-2.24207 -0.0363,-3.36162 -0.10104,-1.27077 -0.41516,-2.51188 -0.67254,-3.75727 -0.25334,-1.17672 -0.51015,-2.35273 -0.75523,-3.5312 -0.21003,-0.9952 -0.39624,-1.99572 -0.67458,-2.97437 -0.50999,-1.48426 -1.29781,-2.84804 -2.04229,-4.22236 -0.47879,-0.86399 -0.96298,-1.72409 -1.39288,-2.61372 -0.49135,-1.07149 -1.05275,-2.10865 -1.65057,-3.12392 -0.51647,-0.84936 -1.26545,-1.50064 -2.0025,-2.1504 -1.38457,-1.24516 -2.91986,-1.90762 -4.62214,-2.88855 -0.45686,-0.26326 -0.32171,-0.18772 -0.8064,-0.40742 -0.81341,-0.32919 -1.61041,-0.70549 -2.44612,-0.97758 -0.46498,-0.15139 -1.18714,-0.33313 -1.66249,-0.45753 -1.61493,2.1051 1.36213,4.38896 2.97707,2.28386 v 0 c 1.4487,0.394 2.80416,0.90336 4.15332,1.56169 1.21423,0.6241 3.26695,1.83091 -2.1372,-1.29365 -0.10752,-0.0622 0.21199,0.13001 0.31237,0.20318 0.0111,0.008 0.64013,0.51728 0.64122,0.51815 0.74057,0.63466 1.51969,1.24646 2.08124,2.055 0.62031,0.98182 1.20068,1.99661 1.63957,3.07379 0.42378,0.91916 0.92638,1.79506 1.44595,2.66315 0.74654,1.34621 1.58736,2.65487 2.05914,4.13321 0.26276,0.97299 0.43532,1.96713 0.67355,2.94649 0.24897,1.18347 0.52861,2.36031 0.77912,3.54336 0.2627,1.22369 0.56764,2.44673 0.66942,3.69683 0.0992,1.11288 0.013,2.23286 0.0541,3.34901 0.0318,1.33381 0.0997,2.66572 0.2767,3.98964 0.21659,1.50203 0.50017,2.99165 0.80217,4.47875 0.28736,1.53313 0.46606,3.08608 0.4151,4.64895 0.003,1.78565 0.0101,3.5712 0.0116,5.35684 0.003,1.80181 -0.0273,3.60334 -0.0108,5.40516 0.0249,1.91148 0.0649,3.82365 0.19685,5.73124 0.13528,2.07567 0.32528,4.14727 0.47691,6.22181 0.055,0.80735 0.14552,1.61203 0.19799,2.4193 0.0509,0.78268 0.053,1.56899 0.13642,2.34978 0.1425,1.88863 0.17343,3.77785 0.15647,5.67173 -0.006,1.77299 -0.0479,3.54516 -0.041,5.31822 -0.005,1.30976 0.003,2.61965 -0.0251,3.9292 -0.0525,1.39368 -0.14238,2.7965 -0.56669,4.13554 -0.46781,1.3638 -1.05166,2.68365 -1.5486,4.03708 -0.21149,0.52362 -0.31248,0.81306 -0.57762,1.31261 -0.38547,0.72625 -0.87479,1.39001 -1.38353,2.03305 -0.58219,0.75892 -1.14721,1.53021 -1.73318,2.28567 -0.83836,0.94525 -1.75477,1.81348 -2.80421,2.52437 -0.9108,0.70616 -1.84105,1.38591 -2.7617,2.0791 -1.30749,0.98206 -2.70848,1.8148 -4.24013,2.40444 -1.14467,0.42315 -2.32886,0.89899 -3.56063,0.95558 -1.64107,2.25873 1.55326,4.57955 3.19432,2.32081 z" />
    <path
       style="fill:#ff0000;fill-opacity:1;stroke-width:0.261;stroke-dasharray:none"
       id="path16"
       d="m 209.65235,170.62073 c -0.31318,2.28293 -0.60699,4.57615 -1.1561,6.81776 -0.14808,0.60453 -0.33247,1.19958 -0.4987,1.79936 -0.98017,3.36847 -2.30955,6.60299 -3.83018,9.75821 -1.53274,3.06923 -3.38466,5.95915 -5.1844,8.87464 -2.20339,3.60583 -4.47377,7.16939 -6.77293,10.71464 -2.0606,3.21387 -4.00458,6.50737 -5.74036,9.90839 -1.3847,2.88899 -2.29149,5.97579 -3.28548,9.01365 -0.61554,1.79116 -1.10322,3.6213 -1.57793,5.45348 -1.28322,2.37369 2.07368,4.18843 3.3569,1.81474 v 0 c 0.437,-1.83624 0.91173,-3.66522 1.52073,-5.45329 0.98889,-3.02126 1.88663,-6.08829 3.24991,-8.96872 1.69482,-3.40805 3.6135,-6.6997 5.64133,-9.91986 2.28594,-3.55694 4.63791,-7.07159 6.81826,-10.69556 1.8249,-2.91666 3.73257,-5.78792 5.23559,-8.89169 1.52829,-3.18674 2.85709,-6.42655 3.83826,-9.82886 0.78885,-2.80326 1.34063,-5.65293 1.86199,-8.51666 1.32952,-2.45853 -2.14737,-4.33876 -3.47689,-1.88023 z" />
    <path
       style="fill:#ff0000;fill-opacity:1;stroke-width:0.261;stroke-dasharray:none"
       id="path17"
       d="m 137.59104,172.06489 c 2.0461,2.29828 3.9496,4.72208 5.78881,7.18828 2.8072,3.81034 5.51658,7.68638 8.07856,11.66572 1.9332,3.03623 3.61121,6.22727 5.15629,9.47556 1.66985,3.56109 3.44543,7.07001 5.16764,10.60558 0.96559,1.95432 2.03754,3.85813 2.80767,5.90272 0.33378,0.88613 0.62251,1.78864 0.94668,2.67833 0.81548,2.04056 1.36625,4.16017 1.94457,6.27442 0.39756,1.53889 0.68875,3.10251 1.10208,4.63751 0.49329,1.72549 1.0483,3.42338 1.71891,5.08807 -1.14634,2.48187 2.36356,4.10304 3.50989,1.62116 v 0 c -0.6744,-1.65002 -1.24789,-3.32532 -1.72669,-5.04301 -0.44029,-1.52947 -0.69598,-3.10446 -1.11129,-4.6407 -0.5929,-2.13754 -1.17337,-4.27571 -2.00498,-6.33732 -0.50719,-1.38542 -0.94832,-2.79875 -1.54059,-4.15155 -0.48952,-1.11809 -0.90368,-1.86549 -1.46077,-2.95294 -0.26147,-0.5104 -0.52022,-1.02219 -0.78033,-1.53329 -1.74419,-3.51765 -3.54975,-7.00621 -5.15097,-10.59271 -1.55823,-3.27649 -3.2484,-6.49959 -5.21179,-9.55362 -2.58188,-3.96327 -5.27875,-7.84819 -8.05276,-11.67938 -1.78228,-2.43204 -3.65614,-4.78865 -5.53784,-7.14381 1.06703,-2.57605 -2.57605,-4.08507 -3.64309,-1.50902 z" />
    <path
       style="fill:#ff0000;fill-opacity:1;stroke-width:0.261;stroke-dasharray:none"
       id="path18"
       d="m 177.37031,277.82713 c 0.67152,2.80178 0.73147,5.71492 0.84286,8.5825 0.0807,2.34077 0.0757,4.68302 0.0946,7.02474 0.007,2.271 -0.006,4.54197 -0.009,6.81297 -2.1e-4,2.20527 0.0398,4.40856 -0.12013,6.60918 -0.38776,2.94582 -1.09009,5.83833 -1.8367,8.71035 -0.74247,2.84451 -1.40184,5.71037 -2.03294,8.5815 -0.37102,2.27229 -1.11759,4.43685 -2.10353,6.51018 -0.55506,1.05531 -1.07004,2.17381 -1.87825,3.06797 -0.3603,0.39862 -0.75184,0.69551 -1.16417,1.03389 -0.96711,0.65444 -1.97152,1.25063 -2.95559,1.88177 -0.69466,0.52583 -1.52078,0.78721 -2.35771,0.98112 -1.57624,2.28817 1.65975,4.51732 3.23598,2.22912 v 0 c 0.8585,-0.24104 1.69779,-0.55369 2.422,-1.08889 0.99167,-0.63619 2.00167,-1.24791 2.95192,-1.94374 0.45204,-0.38939 0.79331,-0.65733 1.19161,-1.11212 0.81351,-0.92882 1.35999,-2.05695 1.8921,-3.15921 0.97789,-2.10248 1.77745,-4.29122 2.14626,-6.58894 0.57153,-2.88475 1.18174,-5.76493 1.9499,-8.60452 0.76241,-2.88316 1.49921,-5.78117 1.93399,-8.73506 0.18603,-2.20681 0.1547,-4.41579 0.14633,-6.62913 0.001,-2.27285 -0.005,-4.5457 1e-4,-6.81855 0.009,-2.35535 -0.0239,-4.71109 -0.13726,-7.06406 -0.13921,-2.86811 -0.24095,-5.75127 -0.65145,-8.59536 1.19198,-2.51825 -2.36935,-4.20396 -3.56134,-1.68571 z" />
  </g>
</svg>
