<?xml version="1.0" encoding="UTF-8" standalone="no"?>
<!-- Created with Inkscape (http://www.inkscape.org/) -->

<svg
   width="2in"
   height="3in"
   viewBox="0 0 50.8 76.2"
   version="1.1"
   id="svg1"
   inkscape:version="1.3.2 (091e20e, 2023-11-25, custom)"
   sodipodi:docname="card front temp.svg"
   xmlns:inkscape="http://www.inkscape.org/namespaces/inkscape"
   xmlns:sodipodi="http://sodipodi.sourceforge.net/DTD/sodipodi-0.dtd"
   xmlns="http://www.w3.org/2000/svg"
   xmlns:svg="http://www.w3.org/2000/svg">
  <sodipodi:namedview
     id="namedview1"
     pagecolor="#ffffff"
     bordercolor="#cccccc"
     borderopacity="1"
     inkscape:showpageshadow="0"
     inkscape:pageopacity="1"
     inkscape:pagecheckerboard="0"
     inkscape:deskcolor="#d1d1d1"
     inkscape:document-units="mm"
     inkscape:zoom="2.8284271"
     inkscape:cx="41.542523"
     inkscape:cy="148.6692"
     inkscape:window-width="1920"
     inkscape:window-height="1017"
     inkscape:window-x="-8"
     inkscape:window-y="-8"
     inkscape:window-maximized="1"
     inkscape:current-layer="layer1" />
  <defs
     id="defs1">
    <rect
       x="62"
       y="121.25"
       width="68.25"
       height="29.25"
       id="rect5" />
  </defs>
  <g
     inkscape:label="Layer 1"
     inkscape:groupmode="layer"
     id="layer1">
    <rect
       style="fill:#000000;stroke-width:0.261"
       id="rect1"
       width="50.799118"
       height="76.199249"
       x="0.0011756547"
       y="1.5679747e-05"
       rx="1.7377447"
       ry="2.1097682" />
    <rect
       style="fill:#ffffff;stroke-width:0.247768"
       id="rect1-3"
       width="47.712158"
       height="73.112289"
       x="1.5508388"
       y="1.485222"
       rx="1.6321453"
       ry="2.0242977" />
    <ellipse
       style="fill:#000000;stroke-width:0.261"
       id="path3"
       cx="25.584375"
       cy="37.604824"
       rx="15.10741"
       ry="14.780005" />
    <rect
       style="fill:#000000;stroke-width:0.162762"
       id="rect4"
       width="49.110775"
       height="1.9644309"
       x="0.84189904"
       y="37.324192"
       ry="0.03637835" />
    <rect
       style="fill:#000000;stroke-width:0.201682"
       id="rect4-8"
       width="1.9761237"
       height="74.959221"
       x="24.475567"
       y="0.70507818"
       ry="1.3881336" />
    <ellipse
       style="fill:#ffffff;stroke-width:0.228694"
       id="path3-6"
       cx="25.649479"
       cy="37.568554"
       rx="13.376841"
       ry="12.815574" />
    <text
       xml:space="preserve"
       transform="scale(0.26458333)"
       id="text4"
       style="fill:#000000;stroke-width:0.98645669;font-size:24px;-inkscape-font-specification:Coolsville;font-family:Coolsville;white-space:pre;shape-inside:url(#rect5)" />
    <text
       xml:space="preserve"
       style="font-size:6.35px;font-family:Impact;-inkscape-font-specification:Impact;white-space:pre;inline-size:0;fill:#000000;stroke-width:0.261;font-weight:normal;font-style:normal;font-stretch:normal;font-variant:normal"
       x="28.111979"
       y="37.372395"
       id="text6"><tspan
         id="tspan6"
         style="stroke-width:0.261;-inkscape-font-specification:Impact;font-family:Impact;font-weight:normal;font-style:normal;font-stretch:normal;font-variant:normal"
         x="28.111979"
         y="37.372395" /></text>
    <text
       xml:space="preserve"
       style="font-style:normal;font-variant:normal;font-weight:normal;font-stretch:normal;font-size:6.35px;font-family:Impact;-inkscape-font-specification:Impact;fill:#000000;stroke-width:0.261"
       x="13.82448"
       y="38.298435"
       id="text7"><tspan
         sodipodi:role="line"
         id="tspan7"
         style="stroke-width:0.261"
         x="13.82448"
         y="38.298435">Backsies</tspan></text>
    <path
       id="path9"
       style="fill:#000000;stroke-width:0.301539"
       d="m 32.896943,38.749367 c -0.208321,0.0174 -0.416631,0.03672 -0.62486,0.05521 -0.232347,0.02059 -0.464692,0.04066 -0.697059,0.06098 -0.251088,0.01926 -0.499343,0.06055 -0.746745,0.103022 -0.223866,0.03649 -0.448972,0.06408 -0.672987,0.09979 -0.210592,0.02655 -0.414454,0.08056 -0.620858,0.123778 -0.176553,0.04645 -0.356944,0.07626 -0.538897,0.09992 -0.231391,0.02757 -0.464362,0.04685 -0.696502,0.06736 -0.253971,0.01559 -0.505039,0.05422 -0.756753,0.08774 -0.260246,0.0436 -0.517196,0.09683 -0.778644,0.134894 -0.306804,0.05403 -0.613424,0.108224 -0.922767,0.14966 -0.343024,0.04328 -0.68763,0.07432 -1.032033,0.105368 -0.39011,0.03468 -0.780204,0.06844 -1.17037,0.102395 -0.406197,0.03535 -0.812518,0.07111 -1.218697,0.106622 -0.4098,0.03584 -0.819531,0.07116 -1.229333,0.107015 l -1.140581,0.09979 c 0.02589,0.03884 0.0112,0.09591 0.01527,0.142432 0.0088,0.100974 -0.0096,0.296634 -0.01636,0.39235 -0.02197,0.170625 -0.03483,0.342185 -0.05852,0.512885 l 0.01525,-0.0013 c 0.425291,-0.03721 0.850332,-0.07439 1.275624,-0.111602 0.409768,-0.03585 0.819522,-0.07172 1.229287,-0.107549 0.405965,-0.03549 0.812099,-0.0707 1.218082,-0.10603 0.391798,-0.0341 0.783254,-0.06806 1.175003,-0.1028 0.367577,-0.03326 0.735356,-0.06634 1.101401,-0.113052 0.315431,-0.04262 0.628606,-0.09612 0.941161,-0.15288 0.254658,-0.03753 0.506987,-0.08509 0.759537,-0.132145 0.22822,-0.03055 0.455067,-0.06603 0.685447,-0.07935 0.254527,-0.02249 0.509563,-0.04442 0.76317,-0.0754 0.222743,-0.02953 0.444647,-0.06456 0.661185,-0.120307 0.180248,-0.03846 0.358109,-0.08581 0.542078,-0.109346 0.230104,-0.03673 0.461655,-0.06388 0.691426,-0.102497 0.204351,-0.03508 0.409327,-0.07084 0.6168,-0.08628 0.232926,-0.02042 0.466134,-0.04064 0.699046,-0.06116 0.203436,-0.01806 0.406794,-0.03659 0.610295,-0.05393 0.154119,-0.01238 0.30893,-0.02553 0.463365,-0.02546 0.138816,0.0056 0.2676,0.04821 0.403941,0.06535 0.02551,0.0045 0.05064,0.01072 0.07658,0.01377 0.008,0.0011 -0.02179,-0.01855 -0.01467,-0.01541 0.02294,0.01003 0.04275,0.02341 0.06564,0.03355 0.06979,0.04134 0.137216,0.08218 0.190924,0.138909 0.0082,0.0097 0.02059,0.01726 0.02712,0.02778 0.02422,0.03934 0.04444,0.08077 0.06532,0.12135 0.01585,0.0085 0.0081,0.0028 0.01176,0.03616 0.009,0.07848 0.01102,0.158039 0.0107,0.237062 -0.0027,0.04383 -0.0011,0.09415 -0.01668,0.13715 -0.0052,0.01446 -0.01507,0.02787 -0.01896,0.04257 -5.96e-4,0.002 0.0048,4.77e-4 0.0074,10e-4 -0.04385,0.07964 -0.144275,0.130746 -0.226935,0.181389 -0.17116,0.0927 -0.331859,0.19437 -0.472542,0.317035 -0.110648,0.08144 -0.217314,0.166597 -0.333611,0.242956 -0.116106,0.07535 -0.246845,0.130857 -0.378754,0.184433 -0.853374,0.27707 -0.414862,1.240777 0.438511,0.963704 l -4.7e-5,-5.35e-4 c 0.246065,-0.08705 0.476288,-0.198102 0.69236,-0.328188 0.149514,-0.0899 0.27683,-0.201317 0.417397,-0.299284 0.07146,-0.04876 0.131405,-0.107255 0.201002,-0.157584 0.0331,-0.02396 0.08454,-0.04535 0.119783,-0.0643 0.188822,-0.105205 0.367352,-0.226177 0.507541,-0.37448 0.03549,-0.03755 0.06665,-0.07757 0.09988,-0.116428 0.160031,-0.216708 0.222846,-0.454934 0.244941,-0.699885 0.01132,-0.196617 -0.0042,-0.391622 -0.05425,-0.582173 -0.05376,-0.164707 -0.14591,-0.31732 -0.257612,-0.459397 -0.133626,-0.156875 -0.30283,-0.285561 -0.491694,-0.39744 -0.185441,-0.114048 -0.366849,-0.160481 -0.594534,-0.200521 -0.187225,-0.03543 -0.372339,-0.07022 -0.565099,-0.08517 -0.231833,-0.01069 -0.464896,0.0081 -0.696743,0.0265 z M 6.4059167,42.48371 c -4.837e-4,0.0076 -6.383e-4,0.01512 -7.755e-4,0.02268 0.00887,-0.0065 0.017459,-0.01306 0.026285,-0.01956 -0.00856,-0.0013 -0.017108,-0.002 -0.025626,-0.0032 z m 0.6739714,0.23934 c -0.014619,0.0073 0.00633,0.0065 0.032997,0.0035 -0.010694,-0.0039 -0.019802,-0.0042 -0.032997,-0.0035 z" />
    <path
       style="fill:#000000;stroke-width:0.265914"
       id="path10"
       d="m 17.456623,41.540115 c 0.127009,-0.149065 0.29372,-0.24378 0.457223,-0.342751 0.228997,-0.129781 0.469779,-0.234542 0.71006,-0.339516 0.124008,-0.06432 0.256347,-0.107046 0.385403,-0.157932 0.112717,-0.04444 0.150841,-0.06481 0.257409,-0.115756 0.205799,-0.08898 0.382007,-0.224363 0.564303,-0.353271 0.04619,-0.03082 0.09392,-0.06138 0.145657,-0.08156 0.0034,-0.0014 0.01425,-0.0029 0.01096,-0.0012 -0.01038,0.0054 -0.02113,0.01343 -0.03271,0.01218 -0.109843,-0.01147 -0.218526,-0.03324 -0.327786,-0.04985 -0.07684,-0.102311 -0.17146,-0.192678 -0.230508,-0.306932 -0.02454,-0.0475 -0.007,-0.107294 -0.01126,-0.160884 -0.0017,-0.02047 -0.01112,0.03939 -0.01475,0.05955 -0.01526,0.08466 -0.01503,0.09651 -0.02355,0.178807 -0.0081,0.146744 -0.02593,0.292369 -0.03469,0.439108 -0.0085,0.150122 1.83e-4,0.30035 0.01115,0.450161 0.01259,0.155219 0.02942,0.30981 0.032,0.465558 0.0011,0.148042 0.0071,0.295954 0.01643,0.443719 0.0012,0.04147 0.0073,0.08261 0.009,0.124008 1.79e-4,0.0039 -0.0015,0.01582 -0.0014,0.01187 0.0031,-0.09905 4.52e-4,-0.126086 0.06375,-0.23203 0.02341,-0.03914 0.06144,-0.06648 0.09217,-0.09971 0.0134,-0.05735 0.07827,-0.02894 0.107635,-0.05764 0.0041,-0.0039 -0.01079,-0.0028 -0.01625,-0.004 -0.03881,-0.008 -0.07687,-0.01444 -0.114773,-0.02665 -0.0905,-0.02686 -0.18072,-0.04945 -0.268364,-0.08415 -0.168477,-0.06884 -0.349108,-0.07218 -0.526868,-0.08234 -0.103974,-0.0056 -0.191956,-0.03659 -0.297335,-0.06738 -0.128473,-0.04464 -0.248519,-0.109519 -0.375936,-0.15759 -0.170648,-0.06513 -0.351491,-0.08245 -0.53019,-0.105864 -0.11316,-0.0087 -0.06142,-0.01524 -0.02801,-0.0012 0.01482,0.0063 0.02801,0.01666 0.0433,0.02149 0.0071,0.0022 -0.01225,-0.009 -0.01833,-0.01355 0.0342,0.02419 0.02619,0.01951 -0.0196,-0.02014 -0.547059,-0.468798 -1.181124,0.329536 -0.634065,0.798332 v 0 c 0.03646,0.03026 0.0093,0.0077 0.08072,0.06861 0.137149,0.09975 0.288737,0.165613 0.457027,0.176035 0.107559,0.01408 0.217435,0.01975 0.321258,0.05449 0.149403,0.05072 0.284718,0.142918 0.439845,0.178567 0.168116,0.04865 0.337611,0.09684 0.512787,0.10439 0.07455,0.0042 0.151108,0.002 0.22423,0.01547 0.122885,0.04858 0.248449,0.08347 0.375051,0.119445 0.209354,0.05281 0.439296,0.09549 0.650769,0.02914 0.05768,-0.01815 0.11064,-0.04945 0.165958,-0.07418 0.05374,-0.04876 0.118039,-0.08727 0.161212,-0.146259 0.136098,-0.185997 0.146256,-0.373675 0.124522,-0.590554 -0.0084,-0.131837 -0.01354,-0.263821 -0.01447,-0.395915 -0.0036,-0.175372 -0.01901,-0.349677 -0.03475,-0.524342 -0.0077,-0.102542 -0.01515,-0.205367 -0.01008,-0.308213 0.0075,-0.132936 0.02501,-0.264768 0.03147,-0.397736 0.0015,-0.01911 0.0016,-0.03846 0.0046,-0.05739 0.005,-0.03106 0.02499,-0.102004 0.02604,-0.120566 0.01993,-0.348105 0.0025,-0.226808 -0.243731,-0.597585 -0.123105,-0.02504 -0.244519,-0.06268 -0.369315,-0.07514 -0.03721,-0.0038 -0.07309,0.01596 -0.108722,0.02737 -0.14066,0.04494 -0.268785,0.124167 -0.391343,0.206441 -0.135026,0.09721 -0.265032,0.201629 -0.418797,0.267104 -0.01551,0.0075 -0.129608,0.06363 -0.154459,0.0733 -0.152813,0.05969 -0.308941,0.11094 -0.456089,0.185588 -0.280134,0.122425 -0.560357,0.245931 -0.826062,0.399747 -0.211847,0.128892 -0.433579,0.258063 -0.600518,0.448473 -0.536025,0.475146 0.116578,1.265944 0.652644,0.790793 z" />
  </g>
</svg>
