<?xml version="1.0" encoding="UTF-8" standalone="no"?>
<!-- Created with Inkscape (http://www.inkscape.org/) -->

<svg
   width="198.96468mm"
   height="193.17661mm"
   viewBox="0 0 198.96468 193.17661"
   version="1.1"
   id="svg1"
   inkscape:export-filename="traiccardfront.png.png"
   inkscape:export-xdpi="96"
   inkscape:export-ydpi="96"
   inkscape:version="1.3.2 (091e20e, 2023-11-25, custom)"
   sodipodi:docname="trait card back.pdf"
   inkscape:dataloss="true"
   xmlns:inkscape="http://www.inkscape.org/namespaces/inkscape"
   xmlns:sodipodi="http://sodipodi.sourceforge.net/DTD/sodipodi-0.dtd"
   xmlns="http://www.w3.org/2000/svg"
   xmlns:svg="http://www.w3.org/2000/svg">
  <sodipodi:namedview
     id="namedview1"
     pagecolor="#ffffff"
     bordercolor="#cccccc"
     borderopacity="1"
     inkscape:showpageshadow="0"
     inkscape:pageopacity="1"
     inkscape:pagecheckerboard="0"
     inkscape:deskcolor="#d1d1d1"
     inkscape:document-units="mm"
     inkscape:zoom="0.73139029"
     inkscape:cx="256.36107"
     inkscape:cy="414.96312"
     inkscape:window-width="1920"
     inkscape:window-height="1017"
     inkscape:window-x="-8"
     inkscape:window-y="-8"
     inkscape:window-maximized="1"
     inkscape:current-layer="layer1" />
  <defs
     id="defs1" />
  <g
     inkscape:label="Layer 1"
     inkscape:groupmode="layer"
     id="layer1"
     transform="translate(-3.9792934,-2.8940317)">
    <rect
       style="fill:#000000;stroke-width:0.261"
       id="rect1"
       width="198.96468"
       height="193.17661"
       x="3.9792933"
       y="2.8940315"
       rx="9.7867622"
       ry="10.339671" />
    <rect
       style="fill:#ffffff;stroke-width:0.244142"
       id="rect1-8"
       width="186.30328"
       height="180.51521"
       x="10.469778"
       y="8.7687225"
       rx="9.163969"
       ry="9.6619778" />
    <rect
       style="fill:#000000;stroke-width:0.179882"
       id="rect2"
       width="192.45311"
       height="6.8733244"
       x="7.5968332"
       y="100.20584"
       rx="0"
       ry="0" />
    <rect
       style="fill:#000000;stroke-width:0.186247"
       id="rect2-2"
       width="7.5968366"
       height="186.66504"
       x="100.88832"
       y="6.3018389"
       rx="0"
       ry="0" />
    <ellipse
       style="fill:#000000;stroke-width:0.261"
       id="path2"
       cx="104.18514"
       cy="102.37637"
       rx="60.051155"
       ry="59.689404" />
    <ellipse
       style="fill:#ffffff;stroke-width:0.226302"
       id="path2-9"
       cx="104.06625"
       cy="102.55596"
       rx="52.273441"
       ry="51.549938" />
    <text
       xml:space="preserve"
       style="font-size:19.7556px;font-family:Coolsville;-inkscape-font-specification:Coolsville;fill:#000000;stroke-width:0.261"
       x="67.28624"
       y="100.92936"
       id="text4"><tspan
         sodipodi:role="line"
         id="tspan4"
         style="font-style:normal;font-variant:normal;font-weight:normal;font-stretch:normal;font-size:19.7556px;font-family:Impact;-inkscape-font-specification:Impact;fill:#000000;stroke-width:0.261"
         x="67.28624"
         y="100.92936">Frontsies</tspan></text>
    <path
       id="path7"
       d="m 126.86434,106.87803 c -0.69623,0.0716 -1.39246,0.14718 -2.0887,0.21878 -0.77882,0.0827 -1.55292,0.16428 -2.33178,0.24702 -0.839,0.0772 -1.66856,0.23588 -2.49816,0.40554 -0.74694,0.14717 -1.50335,0.25815 -2.25033,0.39996 -0.7045,0.10382 -1.38658,0.31863 -2.07806,0.49393 -0.59003,0.18099 -1.19424,0.30032 -1.80314,0.3942 -0.7741,0.10939 -1.55292,0.18656 -2.32706,0.2681 -0.85318,0.0605 -1.69218,0.2148 -2.53121,0.35084 -0.87088,0.16986 -1.73349,0.38466 -2.60437,0.53183 -1.02782,0.21878 -2.05561,0.43363 -3.08819,0.59783 -1.14818,0.16985 -2.2999,0.29595 -3.452799,0.42236 -1.303956,0.13604 -2.609084,0.26811 -3.91304,0.40554 -1.360622,0.14161 -2.720039,0.27924 -4.079456,0.4224 -1.36885,0.14161 -2.738871,0.28481 -4.11247,0.42658 l -3.811553,0.39579 c 0.08262,0.15275 0.03646,0.38306 0.05084,0.56974 0.02676,0.39993 -0.03345,1.17874 -0.05553,1.55624 -0.07326,0.68056 -0.120421,1.36538 -0.19836,2.04455 l 0.05084,-0.004 c 1.424344,-0.14718 2.843938,-0.29595 4.268249,-0.44345 1.36885,-0.1432 2.74245,-0.28481 4.112471,-0.42797 1.359417,-0.14161 2.714117,-0.28481 4.074705,-0.4224 1.308673,-0.13604 2.617346,-0.27367 3.931943,-0.41115 1.22605,-0.13047 2.45685,-0.26253 3.68293,-0.44905 1.05496,-0.16985 2.10165,-0.38306 3.14837,-0.60761 0.85198,-0.14877 1.69573,-0.3409 2.53947,-0.52626 0.76585,-0.12053 1.52109,-0.26373 2.29519,-0.31305 0.84847,-0.0927 1.70161,-0.18099 2.55008,-0.30152 0.7458,-0.12053 1.48803,-0.25816 2.2126,-0.47714 0.603,-0.15314 1.19775,-0.34527 1.81136,-0.4378 0.76939,-0.1432 1.54353,-0.25259 2.31409,-0.40557 0.6868,-0.1432 1.36885,-0.28481 2.06508,-0.34528 0.77882,-0.0827 1.55768,-0.1599 2.3365,-0.24145 0.68208,-0.0716 1.36059,-0.14877 2.04267,-0.2148 0.51567,-0.0489 1.03254,-0.10382 1.54821,-0.10382 0.46613,0.0239 0.89449,0.19213 1.35115,0.26373 0.0873,0.0159 0.16993,0.0398 0.25724,0.0549 0.0268,0 -0.0733,-0.0772 -0.0508,-0.066 0.0789,0.0434 0.14384,0.0927 0.22178,0.13604 0.23482,0.16548 0.45669,0.32419 0.63605,0.55431 0.0268,0.0398 0.0696,0.066 0.092,0.10939 0.0826,0.15274 0.14752,0.31862 0.22178,0.4827 0.0508,0.0318 0.0234,0.0119 0.0365,0.14161 0.0335,0.31306 0.0365,0.63148 0.0365,0.94302 -0.01,0.17542 -0.003,0.37312 -0.0555,0.54866 -0.0167,0.0549 -0.0508,0.10939 -0.0636,0.16985 0,0.004 0.0134,0 0.0234,0 -0.14283,0.31862 -0.47907,0.52061 -0.75521,0.72408 -0.57705,0.36635 -1.11161,0.77181 -1.58129,1.26017 -0.37407,0.32419 -0.72925,0.66373 -1.1163,0.96545 -0.3918,0.30032 -0.82488,0.52061 -1.2674,0.7339 -2.85333,1.10158 -1.38771,4.93395 1.46563,3.83238 0.82605,-0.34647 1.59544,-0.79008 2.31408,-1.30508 0.50269,-0.35641 0.92634,-0.79986 1.39719,-1.18996 0.2395,-0.1965 0.44251,-0.42801 0.67261,-0.63008 0.11106,-0.0927 0.28567,-0.18099 0.40124,-0.25259 0.6313,-0.42237 1.23077,-0.89811 1.69572,-1.49029 0.12042,-0.14877 0.22646,-0.30748 0.33748,-0.46588 0.53457,-0.86163 0.74581,-1.80882 0.82014,-2.77988 0.0365,-0.78303 -0.0134,-1.56185 -0.18398,-2.31823 -0.18063,-0.65251 -0.48854,-1.26156 -0.86262,-1.82569 -0.44722,-0.62443 -1.00895,-1.13944 -1.64026,-1.58428 -0.62308,-0.44905 -1.2308,-0.63569 -1.99193,-0.79424 -0.62662,-0.1432 -1.24495,-0.27925 -1.88927,-0.33971 -0.77527,-0.045 -1.55413,0.0318 -2.33295,0.10382 z m -88.609902,14.8551 c -0.0047,0.0318 -0.0047,0.0605 -0.0047,0.0927 0.02843,-0.0279 0.06018,-0.0549 0.08734,-0.0816 -0.02709,-0.004 -0.05429,-0.004 -0.08734,-0.0119 z m 2.253883,0.95284 c -0.05084,0.0278 0.02007,0.0278 0.111054,0.0119 -0.03646,-0.0119 -0.06958,-0.0159 -0.111054,-0.0119 z"
       style="fill:#000000;fill-opacity:1;fill-rule:nonzero;stroke:none;stroke-width:1.28683" />
    <path
       id="path8"
       d="m 75.218305,117.97796 c 0.424818,-0.59217 0.981798,-0.96967 1.530515,-1.35977 0.765843,-0.52061 1.56711,-0.93741 2.374264,-1.35416 0.415385,-0.2514 0.857898,-0.42097 1.286261,-0.62448 0.37762,-0.18099 0.506236,-0.25696 0.861444,-0.46027 0.691483,-0.35641 1.276795,-0.89389 1.890439,-1.4089 0.152198,-0.12052 0.31276,-0.24145 0.483791,-0.32259 0.01338,-0.004 0.05084,-0.0119 0.03646,-0.004 -0.03345,0.0199 -0.06857,0.0549 -0.106371,0.0489 -0.368187,-0.0434 -0.732794,-0.13206 -1.096265,-0.19769 -0.25857,-0.40554 -0.577049,-0.7676 -0.770559,-1.22226 -0.08262,-0.18656 -0.02676,-0.42801 -0.04114,-0.6413 -0.0033,-0.0772 -0.03646,0.15871 -0.04616,0.24145 -0.05084,0.33414 -0.05084,0.38306 -0.07794,0.70725 -0.02676,0.58657 -0.08731,1.16753 -0.120421,1.74849 -0.02676,0.59778 0.0033,1.1956 0.03646,1.79199 0.04616,0.61461 0.101354,1.23348 0.111055,1.85374 0.0033,0.58657 0.02341,1.17313 0.05553,1.76392 0.0033,0.16547 0.02341,0.32976 0.02676,0.49392 0,0.0119 -0.0033,0.0605 -0.0033,0.0434 0.0067,-0.3942 0,-0.49818 0.211071,-0.92055 0.07894,-0.15871 0.207726,-0.26253 0.30908,-0.39992 0.04616,-0.22475 0.263253,-0.11496 0.359925,-0.22475 0.01338,-0.0159 -0.03345,-0.0119 -0.05085,-0.0159 -0.13447,-0.0318 -0.25857,-0.0605 -0.387052,-0.10939 -0.299714,-0.10382 -0.604178,-0.1977 -0.894493,-0.33414 -0.567583,-0.27486 -1.17059,-0.2864 -1.765335,-0.32419 -0.345775,-0.0278 -0.640773,-0.14717 -0.995981,-0.2681 -0.42833,-0.18099 -0.829565,-0.43923 -1.254383,-0.63148 -0.571129,-0.25696 -1.17534,-0.32816 -1.773598,-0.42097 -0.378823,-0.0318 -0.207726,-0.0605 -0.09333,0 0.04616,0.0199 0.09333,0.066 0.143836,0.0816 0.02341,0.0119 -0.04248,-0.0318 -0.06021,-0.0549 0.1144,0.0994 0.08731,0.0827 -0.06489,-0.0756 -1.830262,-1.86496 -3.955522,1.30925 -2.12526,3.17281 0.125104,0.12053 0.03345,0.0318 0.27262,0.27487 0.455491,0.3942 0.962931,0.65673 1.530515,0.70164 0.358753,0.0549 0.723394,0.0756 1.073852,0.21321 0.497974,0.20207 0.948749,0.56974 1.470338,0.7129 0.561696,0.19094 1.129313,0.38306 1.714625,0.41115 0.24887,0.0199 0.507407,0.008 0.751694,0.066 0.409464,0.19093 0.829565,0.32817 1.253212,0.47149 0.70095,0.21321 1.470338,0.38306 2.176004,0.11933 0.193677,-0.0756 0.368187,-0.1965 0.55815,-0.29595 0.179294,-0.1965 0.391803,-0.35084 0.539285,-0.58095 0.450775,-0.73952 0.48854,-1.49029 0.414214,-2.35049 -0.02676,-0.52622 -0.04616,-1.04684 -0.05084,-1.57306 -0.01003,-0.70164 -0.06021,-1.39346 -0.1144,-2.0895 -0.02341,-0.40553 -0.05084,-0.81672 -0.03345,-1.22226 0.02341,-0.53183 0.08362,-1.05805 0.106371,-1.58428 0.0033,-0.0756 0.0033,-0.15314 0.01338,-0.23031 0.01673,-0.12053 0.08262,-0.40554 0.08731,-0.4771 0.06489,-1.38646 0.01004,-0.90371 -0.815416,-2.37856 -0.410669,-0.0983 -0.816587,-0.24702 -1.235518,-0.29595 -0.125104,-0.0159 -0.244187,0.0605 -0.364641,0.10382 -0.469641,0.18099 -0.899175,0.49957 -1.308673,0.82229 -0.451946,0.39022 -0.885026,0.8069 -1.401899,1.0637 -0.05084,0.0318 -0.43308,0.25259 -0.515668,0.29038 -0.512157,0.24146 -1.032542,0.44488 -1.525799,0.73956 -0.935803,0.48835 -1.871573,0.97667 -2.761316,1.58992 -0.710382,0.51501 -1.452642,1.0258 -2.009622,1.78775 -1.793701,1.88464 0.391769,5.03219 2.184266,3.14055 z"
       style="fill:#000000;fill-opacity:1;fill-rule:nonzero;stroke:none;stroke-width:1.28683" />
  </g>
</svg>
